<svg xmlns="http://www.w3.org/2000/svg" version="1.1" id="Layer_1" x="0" y="0" width="620" height="173" viewBox="0 0 620 173" xml:space="preserve" enable-background="new 0 0 620 173"><filter id="glow"><feColorMatrix type="matrix" values="0 0 0 0.3 0 0 0 0 0.3 0 0 0 0 0.3 0 0 0 0 0.8 0"/><feGaussianBlur stdDeviation="2.5" result="coloredBlur"/><feMerge><feMergeNode in="coloredBlur"/><feMergeNode in="SourceGraphic"/></feMerge></filter><path d="M101.6 104.3c0 0.8-5.6 1.3-6.6 2.6 -1.8 2.3-1.4 6.3-1.5 9.1 -0.1 4.6-0.1 9.3-0.1 14 0 3.3 0.7 8-0.3 11.2 -0.5 1.8-3.6 2.5-5 3 -3.5 1.3-7.2 2.2-11 2.7 -11.7 1.7-24.4 0.6-35.2-4.3 -13.2-5.9-21.7-17.6-24.1-31.8C15.6 97 19.3 81.9 29 71.7c9.9-10.5 24.5-13.3 38.3-13.1 6.6 0.1 12.9 1.5 19.4 2.5 1.4 0.2 7.5-0.1 7.4 1.7 0 1.2-0.2 2.4-0.3 3.6 -0.2 2.5-0.3 5-0.4 7.5 0 1.9 0 3.8-0.1 5.7 0 0.6-1 2.6-1.6 1.1 -1.1-2.9-0.8-5.9-2.6-8.7 -1.1-1.7-2.7-3-4.4-4 -5.4-3.3-11.9-4.6-18.2-5 -6.9-0.4-14.1 0-20.6 2.7 -13.8 5.9-19.2 20.1-18.9 34.4 0.2 11.9 5 24.5 14.2 32.4 5.7 4.9 12.5 8.2 19.9 9.5 6.2 1.1 14.1 1.3 19.9-1.5 2.7-1.3 2.8-3.5 2.8-6.1 0-3 0-5.9 0-8.9 0-5.2 0.9-11.6-0.6-16.6 -0.7-2.6-3.2-3.5-5.7-3.8 -0.9-0.1-1.8-0.2-2.7-0.2 -1.3 0-1-1.4 0.1-1.5 2.4-0.3 5 0 7.4 0.1 2.8 0.1 5.5 0.3 8.3 0.1C92.1 103.6 101.6 102.5 101.6 104.3zM185 73c-5.2 0-10.4 0.1-15.7 0 -1.3 0-3.5-0.5-4.7 0.1 -1.7 0.8 1.3 1.4 1.8 1.4 2.7 0.2 5.3 0.5 5.8 3.6 0.5 2.7 0.3 5.7 0.3 8.5 0.1 5.1 0.1 10.1 0.1 15.2 0 9.8 1.3 21-3 30.1 -6 12.8-24.4 14.6-33.9 5 -6.8-6.9-6.4-17.5-6.4-26.5 0-8.8-0.1-17.7 0.1-26.6 0.1-2.9-0.5-8 2.9-9 0.9-0.3 3 0 3.8-0.7 1.3-1.2-1.5-1.3-2-1.3 -2.9 0-5.7 0.1-8.6 0.2 -1.9 0-3.8-0.1-5.7-0.1 -1.7 0-3.4-0.1-5-0.1 -0.5 0-4.5-0.2-3 1.3 0.7 0.7 3 0.4 3.9 0.5 1.1 0.2 2.3 0.5 3 1.5 1.1 1.4 1 3.5 1.1 5.2 0.4 8.1 0.1 16.2 0.1 24.2 0 9.8-0.9 20.5 4.4 29.3 5.7 9.5 16.6 12.4 27.1 12 7.2-0.3 14.1-2.6 19.4-7.5 5.1-4.7 7.2-11.6 8.1-18.3 1.3-9.8 0.6-20.1 0.6-30 0-3.4-0.1-6.8 0.1-10.2 0.1-1.9 0.1-4.5 1.9-5.6 1.1-0.7 2.4-0.8 3.7-0.8C187.2 74.6 186.7 73 185 73zM225.8 144.3c-2.3 0-6.3 0.1-7.4-2.4 -1.1-2.3-0.9-5.5-1-8.1 -0.2-5.8-0.1-11.6-0.1-17.4 0-8.6 0-17.3 0-25.9 0-3.2 0-6.4 0.1-9.5 0.1-1.7 0-4.1 1.5-5.3 0.9-0.8 2.3-1 3.5-1.1 1-0.1 3-1.3 1-1.6 -4.2-0.6-8.8 0.2-13 0.1 -2.7-0.1-5.8-0.5-8.5-0.1 -1.6 0.2-0.6 1.5 0.5 1.6 1.4 0.1 3.2 0.2 4.3 1.3 1.8 1.8 1.4 5.7 1.5 8.1 0.1 4.6 0.1 9.2 0.1 13.8 0 6.6 0 13.1 0 19.7 0 5.7 0 11.4-0.3 17.1 -0.1 2.3-0.1 4.8-0.8 7 -0.3 1.1-1 1.9-2.1 2.2 -0.8 0.2-3.9 0.1-3.9 1.2 0 1.7 10 0.4 11.6 0.5 2.2 0.1 4.5 0.2 6.7 0.2 1.9 0.1 3.7 0.1 5.6 0.1C226.1 145.8 227.4 144.3 225.8 144.3zM289.7 132.4c-1.2 0-1.4 2.9-1.7 3.7 -0.6 1.5-1.4 2.9-2.7 3.9 -2.8 2.1-6.8 2-10.1 2 -3.7 0-11.8 0.9-14.5-2.6 -2-2.6-1.6-7.5-1.7-10.5 -0.1-4.7-0.1-9.4-0.1-14 0-8.9 0-17.8 0-26.7 0-2.7 0-5.4 0.1-8.1 0.2-2.3 0.5-4.6 3.1-5.3 1.2-0.3 3.5 0.2 4.4-0.6 1.4-1.2-1.9-1.3-2.3-1.3 -4.1 0-8.3 0.3-12.4 0.2 -3.1-0.1-6.6-0.6-9.7-0.1 -1.6 0.2-0.6 1.5 0.6 1.6 1.5 0.1 3.2 0.1 4.6 0.7 2.8 1.3 2.3 6 2.4 8.7 0.1 5.3 0.1 10.5 0.1 15.8 0 7.1 0 14.2 0 21.3 0 6.5 0.5 13.4-1 19.8 -0.2 1-0.6 2.2-1.7 2.7 -1 0.4-3.6 0.1-4.2 0.9 -1.1 1.4 1.7 1.3 2.2 1.3 2.3 0 4.5-0.2 6.8-0.3 9.8-0.3 19.6 0.5 29.4 0.5 3.4 0 6.6 0.6 7.5-3.2C289.3 141.9 291.4 132.4 289.7 132.4zM355.3 124.7c0 12.1-9.9 20.1-21.4 21.2 -6.5 0.6-12.9-0.7-19.4-0.4 -3.2 0.1-6.9 0.8-10.1 0.3 -1.8-0.3-0.4-1.2 0.6-1.4 1.4-0.2 3.2-0.2 3.9-1.6 1.2-2.1 1.2-5.2 1.3-7.6 0.2-3.7 0.2-7.3 0.2-11 0-4.2 0-8.4 0-12.7 0-8.8 0.1-17.7 0-26.5 0-1.6-0.1-3.3-0.2-4.9 -0.1-1.7-0.3-3.7-1.7-4.7 -1.9-1.3-4.6-0.1-6.3-1.2 -1.7-1.1 4.2-1.2 4.5-1.2 2.4 0 4.8 0.1 7.2 0.2 4.9 0.1 9.8-0.4 14.7-0.2 7.2 0.3 15.2 3 18.2 10.2 3.5 8.5-3.2 16-9.1 21.3C346.6 107.3 355.3 114.7 355.3 124.7 355.3 135.4 355.3 113.8 355.3 124.7zM319.2 102.9c0 2.5 9.4 1.5 10.9 1.4 4.5-0.3 7.2-3.3 8.7-7.4 3.1-9.1-2.1-20.3-12.4-20.8 -2-0.1-4.8-0.2-6.7 0.7 -0.7 0.3-0.5 1.1-0.5 1.8 0 2.8 0 5.6 0 8.4C319.2 92.2 319.2 97.6 319.2 102.9zM346 127.8c0-4.2-1.3-8.5-3.7-12 -1.5-2.2-3.5-4.1-5.8-5.6 -2.8-1.8-5.8-1.9-8.9-2.5 -1.9-0.3-3.9-0.2-5.8-0.2 -2.1 0-2.6 0-2.6 2.1 0 4.5 0 9.1 0 13.6 0 4.2-0.1 8.3 0.2 12.5 0.2 2 0.4 3.8 2.2 5 2.4 1.5 5.3 1.8 8 1.9 3.6 0.2 7.5-0.2 10.6-2.1C344.6 137.8 346 132.7 346 127.8 346 123.5 346 140.2 346 127.8zM437.1 145.1c0 1.7-17.6 0.6-18.9 0.5 -0.1 0-3.6-0.2-2.4-1.1 0.8-0.6 1.8-0.8 1.6-2.1 -0.1-0.9-0.7-1.9-1-2.8 -2.7-6.7-5.4-13.3-8.1-20 -0.6-1.4-5.9-0.6-7.1-0.6 -4.4 0-8.7 0-13.1 0 -2.3 0-4.3-0.6-5.2 1.8 -1.4 3.8-2.8 7.7-4.2 11.5 -1.2 3.2-5.2 11.2 0.2 11.8 0.6 0.1 2.2-0.2 2.6 0.4 0.7 1.4-1.8 1.2-2.5 1.2 -2.6-0.1-5.2-0.3-7.9-0.3 -2.8 0-5.5 0.3-8.3 0.3 -0.7 0-3.7 0.4-3.7-0.8 0-1.2 3.7-1 4.6-1.1 4.4-0.9 6.3-5.3 7.8-9.1 5.2-13.5 10.5-27 15.7-40.5 2.3-6 4.7-12 7-18 0.6-1.5 1.2-4.8 2.7-5.2 1.7-0.4 3.6 5.9 4.2 7.4 3.8 9.1 7.5 18.3 11.2 27.5 3.9 9.6 7.5 19.5 11.9 28.9 1.3 2.8 2.9 5.9 5.5 7.7C431.1 143.6 437.1 144.1 437.1 145.1zM406.2 114.4c-2.4-6.4-4.8-12.8-7.2-19.2 -0.9-2.4-1.8-4.8-2.7-7.1 -1.1-3.1-2.8 3.2-3.2 4.2 -2.5 7.2-5.1 14.5-7.6 21.7 -0.7 2 3.5 1.2 4.8 1.2 4.2 0 8.5 0 12.7 0C403.6 115 406.4 115.5 406.2 114.4zM510 73c-5.2 0-10.4 0.1-15.7 0 -1.3 0-3.5-0.5-4.7 0.1 -1.7 0.8 1.3 1.4 1.8 1.4 2.7 0.2 5.3 0.5 5.8 3.6 0.5 2.7 0.3 5.7 0.3 8.5 0.1 5.1 0.1 10.1 0.1 15.2 0 9.8 1.3 21-3 30.1 -6 12.8-24.4 14.6-33.9 5 -6.8-6.9-6.4-17.5-6.4-26.5 0-8.8-0.1-17.7 0.1-26.6 0.1-2.9-0.5-8 2.9-9 0.9-0.3 3 0 3.8-0.7 1.3-1.2-1.5-1.3-2-1.3 -2.9 0-5.7 0.1-8.6 0.2 -1.9 0-3.8-0.1-5.7-0.1 -1.7 0-3.4-0.1-5-0.1 -0.5 0-4.5-0.2-3 1.3 0.7 0.7 3 0.4 3.9 0.5 1.1 0.2 2.3 0.5 3 1.5 1.1 1.4 1 3.5 1.1 5.2 0.4 8.1 0.1 16.2 0.1 24.2 0 9.8-0.9 20.5 4.4 29.3 5.7 9.5 16.6 12.4 27.1 12 7.2-0.3 14.1-2.6 19.4-7.5 5.1-4.7 7.2-11.6 8.1-18.3 1.3-9.8 0.6-20.1 0.6-30 0-3.4-0.1-6.8 0.1-10.2 0.1-1.9 0.1-4.5 1.9-5.6 1.1-0.7 2.4-0.8 3.7-0.8C512.2 74.6 511.7 73 510 73zM600.9 108.5c0 12.1-5.6 24.3-15.7 31.2 -11.7 8-25.8 7.1-39.3 6.4 -6.2-0.5-12.1-0.2-18.2-0.2 -1.1 0-2.4-1.6-0.8-1.6 1.2 0 3-0.1 4-0.9 1.9-1.4 1.8-5.3 1.9-7.5 0.7-10 0.3-20.2 0.3-30.3 0-7.9 0.2-15.9-0.1-23.9 -0.1-1.5-0.1-3.2-0.6-4.7 -1-2.6-4.6-2.5-6.9-2.5 -1.6 0-0.4-1.6 0.8-1.6 1.6 0 3.3 0 4.9 0.1 2.3 0 4.6 0.2 6.9 0.2 11.6-0.2 23.6-1.2 35 1.3 12.9 2.9 23.4 11.7 26.7 24.7C600.5 102.2 600.9 105.4 600.9 108.5zM591.2 111.4c0-13.4-7.2-25.7-19.6-31.3 -6.4-2.9-13.5-3.5-20.4-3.6 -2.4 0-6.3-0.4-8.3 1 -0.9 0.6-0.7 1.9-0.7 2.8 0 16.8-0.2 33.6 0.1 50.3 0.1 3.7-0.4 8.4 3.4 10.3 5.4 2.7 13.2 2.5 19 1.8 7.3-0.9 14.8-4 19.7-9.5C589.5 127.5 591.2 118.9 591.2 111.4z" style="fill:#282829;filter:url(#glow)"/><g filter="url(#glow)"><path d="M109.5 54.1c0.3-0.5-2.7-1.8-3.1-2 4.8-7.5 9.9-15 15.6-22 2.1-2.6 4.3-5.2 6.9-7.3 1.6-1.2 3.5-2.1 4.7-3.7 -1.7-1-4 0.4-5.6 1 -2.9 1.1-5.8 2-8.8 2.8 -6.2 1.7-12.7 2.9-18.6 5.6 -5.6 2.6-13 7.7-13 14.7 0 3.2 2 6.5 5.1 7.4 2.4 0.7 7.2 0.4 8.7-2 -0.9-0.4-2.3 0.5-3.3 0.7 -3 0.9-7.5 0.8-8.2-3 -1.4-7.3 6.6-13.2 12.2-16 8.5-4.3 18.1-6.6 27.2-9.3 -8.8 6.8-16.7 15-23.5 23.8 -1.2 1.5-2.4 3.1-3.5 4.7 -0.4 0.6-1 1.9-1.8 2 -2.8 0.3-5.6 0.6-8.4 1.1 -6.6 1.1-13.3 3.7-18.5 8 -4.1 3.5-10.4 11.3-6.2 16.8 4.1 5.3 13.8 0.3 17.8-2.4 5.6-3.7 10.2-9.1 14.3-14.3 1.5-1.9 3-3.8 4.4-5.8 0.4-0.5 0.7-1 1.1-1.4 0.9-1.1 2.7-0.1 3.8 0.1C109.1 54.2 109.3 54.2 109.5 54.1 109.7 53.8 109.4 54.2 109.5 54.1zM92.3 64.7c-2.8 4.1-5.6 7.9-9.8 10.9 -2.8 2-6.1 3.5-9.6 3.6 -3.4 0.2-6.3-2.3-5.2-5.9 3.8-12.8 19.5-19.8 31.9-19.8C97.4 57.4 94.9 61.1 92.3 64.7zM163 49.6c-1.1 0-2.6 3.3-3.2 4 -1.1 1.3-2.2 2.5-3.2 3.8 -0.8 0.9-1.6 1.9-2.4 2.8 -0.3 0.3-5.3 5.3-5.1 2.5 0.1-2.7 3.1-5.5 4.6-7.5 1.1-1.5 2.4-3.1 3.3-4.8 1-2 1.2-5.4-2-4.3 -2.6 0.9-5.3 3-7.1 5.1 0.7-1.3 1.4-3.3 2.5-4.4 -0.8 0-3.5-0.5-3.9 0.3 -1.3 2.1-2.8 4-4.2 6 -2.2 3.1-4.6 6.3-7.4 8.9 -0.2 0.2-2.9 1.8-2.6 0.4 0-0.9 0.8-1.8 1.2-2.6 0.8-1.4 1.6-2.7 2.4-4.1 1.8-3 3.7-6 5.5-9 -1.1 0-2.1 0-3.2 0 -1.3 0-1.2 0.2-1.9 1.3 -1.5-3.8-8.1 0.6-9.5 2.3 -3.2 3.8-6 7.5-9.8 10.7 -1.3 1.1-3.1 2.5-4.9 2.8 -2.5 0.3-0.8-3.9-0.4-4.9 0.7-1.8 2-1.8 3.7-2.3 2.8-0.8 5.5-2.4 7.4-4.6 2.9-3.3 0.7-7.3-3.5-5.4 -4.1 1.9-8.9 6.6-10.7 10.7 -2.1 4.7 0.3 9.1 5.6 6.9 2.9-1.2 5.2-3.9 7.4-6 -0.7 2.2-0.2 8 3.5 6.3 2-0.9 3.5-3 4.9-4.5 -0.3 2.3 1.1 5.4 3.8 4 1.9-1.1 3.5-2.9 5-4.5 -0.9 1.5-1.9 3.1-2.8 4.6 1 0 2.1 0 3.1 0 1.3 0 1.2-0.2 1.9-1.3 1.1-1.8 2-3.8 3.2-5.6 2.3-3.5 5.8-7.1 9.3-9.4 0.7-0.4 1.4-0.3 1 0.6 -0.7 1.5-1.9 2.8-2.9 4.2 -1.9 2.5-6.8 7.9-4.1 11.3 2.1 2.6 5.4-0.9 6.8-2.5 1.7-2 3.5-3.9 5.2-5.9C160.1 54.5 163.8 49.6 163 49.6zM116.8 51.1c0.7-0.8 1.4-1.5 2.1-2.3 0.7-0.7 4.4-3.1 3.6-0.2 -0.9 3.3-6.2 6.1-9 7.1C114.4 54.1 115.5 52.5 116.8 51.1zM124.3 63.2c-1.8 0 2.9-7.9 3.2-8.5 1.4-2.2 3.2-5 5.3-6.5 2.1-1.5 2.1 1.2 1.3 2.5 -0.6 1.2-1.2 2.4-1.9 3.4 -1.6 2.3-3.3 4.6-5.2 6.7C126.5 61.5 125.4 63.2 124.3 63.2zM184.1 50.3c0 1-1.7 2.1-2.5 2.7 -1.7 1.3-3.9 1.5-5.9 1.1 -2.3-0.5-4.5-1.5-6.9-1.7 -0.6 0-3.8 0.2-1.9-1.1 2.6-1.8 5.4-2 8.4-1.1 1.7 0.5 3.5 1.1 5.3 0.5C181 50.6 184.1 48.8 184.1 50.3zM224.3 44.5c-2.7-2.1-6.4-0.7-8.9 0.9 -2.2 1.3-6 3.8-6.6 6.6 1.2-0.2 1.6-1.2 2.4-2.1 1.2-1.2 2.4-2.3 3.9-3.1 2.2-1.3 7.2-3.2 7.9 0.8 1.1 6.2-7.3 13-12.2 15 -6 2.6-14.8 2.5-15.4-5.9 -0.2-3.2 0.8-6.3 2.3-9.1 0.9-1.7 1.9-3.3 3-4.9 0.7-1 1-0.9 2.1-0.9 7.5 0 15.5-1.7 22.3-5 2.9-1.4 5.7-3.2 7.8-5.7 1.7-1.9 3.6-5.6 0.6-7.4 -2.4-1.5-6.7-0.5-9.2 0 -3.7 0.7-7.3 2.1-10.6 3.7 -3.6 1.8-7.1 3.8-10.3 6.3 -1.5 1.2-2.9 2.4-4.3 3.8 -1 1-1.7 2.7-3.1 2.5 -6.6-0.8-9.5-9.3-5.5-14.2 2.3-2.8 5.7-4.5 9.3-4.3 2.5 0.2 5 2.9 7.3 2.4 -1.7-3-6.9-3.8-10.1-3.6 -4 0.2-8.5 2.4-10 6.3 -2.8 7.1 3.2 12.2 9.2 14.4 -3.4 4-5.6 10.1-4.7 15.4 1.1 5.9 6.7 9 12.4 8.7 6.4-0.3 12.1-4 16.6-8.3C223.1 54.5 228.8 47.9 224.3 44.5 223.3 43.7 225.3 45.3 224.3 44.5zM203 40.1c4-4.8 9.6-8.3 14.9-11.4 2.8-1.6 5.7-2.8 8.8-3.7 1.8-0.6 5.1-1.6 6.6 0.1 3.8 4.2-9.8 10.6-12 11.6 -5.8 2.6-12.5 4.1-18.8 4.1C202.7 40.5 202.8 40.3 203 40.1zM306.6 49.8c-0.8 0-2.6 3.4-3.1 3.9 -1.7 2.1-3.8 4.1-5.8 5.9 -1.5 1.4-3.2 2.9-5.2 3.7 -3.5 1.4-2.3-2.7-1.6-4.5 0.8-2.1 2.7-1.9 4.5-2.5 2.8-1 5.9-2.9 7.5-5.5 1-1.7 0.7-4.9-1.8-4.9 -2.8 0-5.4 2.2-7.3 4 0.2-0.6-1.6 0.9-1.7 1 -0.6 0.9-1.1 1.8-1.8 2.6 -1.2 1.4-2 3.1-3.3 4.4 -0.1 0.1-6.4 6.4-6.6 4.9 -0.3-1 1.1-2.7 1.7-3.7 1.1-1.8 2.2-3.6 3.4-5.4 4.9-8 9.9-16 14.8-24 -1.2 0-3.5-0.6-4.2 0.5 -1.3 2-2.6 4.1-3.8 6.1 -2.4 3.9-4.9 7.9-7.3 11.8 -1.1-3.6-5.9-1.1-7.7 0.3 -2.5 1.8-4.5 4.3-6.1 6.9 -1.7 2.7-5.3 8.2-8.6 8.3 0.3-3.4 3.4-7.2 5.2-10.1 1.4-2.3 2.8-4.6 4.3-6.8 -1 0-2 0-3 0 -2.1 0-2.1 1.3-3.2 3.2 -2.1 3.8-4.5 7.6-7.4 10.8 -0.6 0.6-4.5 4.6-4.5 2.2 0-1.7 1.6-3.8 2.5-5.1 2.2-3.6 5.2-7.1 6.6-11.1 -0.9 0-3.7-0.5-4.1 0.3 -1.4 2.5-3.2 4.4-4.8 6.7 -1.9 2.7-4.4 6.5-7.3 8.4 -3.4 2.1-1.7-1.2-0.8-2.8 0.8-1.4 1.6-2.7 2.4-4.1 1.7-2.9 3.5-5.7 5.2-8.6 -1.1 0-2.1 0-3.2 0 -1.3 0-1.2 0.2-1.9 1.3 -1.6-4-8.5 1.1-10 2.6 -0.9 0.8-1.9 2.5-2.6 3.6 -1.6 2.2-3.5 4.1-5.3 6.1 -0.8 0.8-2.9 3.5-4.3 3.2 -1-0.2-0.1-1.6 0.2-2.1 0.9-1.5 1.9-3 2.8-4.6 5.5-9 11.1-18 16.6-27 -1 0-3.7-0.6-4.3 0.4 -1 1.6-2 3.2-3 4.8 -2.8 4.5-5.6 9-8.4 13.6 -2.3 3.7-5.4 7.5-6.3 11.8 -0.9 4.2 2.5 5.6 5.4 2.6 1.4-1.5 2.9-3 4.3-4.5 -0.7 2.2 0.1 7.6 3.6 6 2-0.9 3.5-3 4.9-4.5 -0.2 1.7 0.5 4.9 2.9 4.3 1.8-0.4 3.3-2.2 4.6-3.5 1.8-1.8 3.3-3.8 4.9-5.8 -1 1.9-5.2 8.7-1.2 9.6 2.8 0.6 5.6-3.8 7.3-5.7 -0.9 1.9-0.4 7 2.7 5.5 2.4-1.1 4.4-3.4 6-5.4 -0.4 2.1 0.1 6.2 3.1 5.5 2.1-0.5 4.4-3.1 5.6-4.9 -0.5 2.9 0.6 6.2 3.9 4.3 1.9-1.1 3.4-2.8 4.9-4.4 -0.6 3.1 0.5 5.7 4 5.4 3-0.3 5.2-2.4 7.3-4.4 1.7-1.6 3.3-3.1 4.9-4.7C303.7 55.3 308.5 49.8 306.6 49.8zM237 63.2c-1.8 0 2.9-7.9 3.2-8.5 1.4-2.2 3.2-5 5.3-6.5 2.1-1.5 2.1 1.2 1.3 2.5 -0.6 1.2-1.2 2.4-1.9 3.4 -1.6 2.3-3.3 4.6-5.2 6.7C239.2 61.5 238 63.2 237 63.2zM272.5 63.2c-0.3-3.2 2-6.3 3.6-8.8 1.2-1.8 3.9-6.5 6.5-7.1 3.3-0.7-2.8 8.7-3.1 9.2C277.9 58.6 275.4 62.7 272.5 63.2 272.5 62.8 274.3 62.9 272.5 63.2zM298.5 48.8c0.6-0.6 2.5-2.5 3.4-1.3 0.9 1.3-1.4 3.2-2.1 3.9 -1.9 2-4.2 3.4-6.8 4.3C294.4 53.1 296.5 50.9 298.5 48.8zM383.4 29.7c-1.2 0-3.5-0.6-4.2 0.5 -1.3 2-2.6 4.1-3.8 6.1 -2.4 3.9-4.9 7.9-7.3 11.8 -1.1-3.6-5.9-1.1-7.7 0.3 -2.4 1.7-4.2 4-5.9 6.6 -2 2.6-5 7-8 8.4 -3.4 1.6 0.3-4.5 0.7-5.1 1.6-2.2 3.2-4.4 4.8-6.6 0.9-1.2 3-5.7-0.2-5.7 -2.9-0.1-6.5 3.3-8.2 5.3 0.7-1.3 1.4-3.3 2.5-4.4 -0.8 0-3.5-0.5-3.9 0.3 -1.3 2.1-2.8 4-4.2 6 -2.2 3.1-4.6 6.3-7.4 8.9 -0.2 0.2-2.9 1.8-2.6 0.4 0-0.9 0.8-1.8 1.2-2.6 0.8-1.4 1.6-2.7 2.4-4.1 1.8-3 3.7-6 5.5-9 -1.1 0-2.1 0-3.2 0 -1.3 0-1.2 0.2-1.9 1.3 -1.3-3.3-5.8-0.4-7.5 0.9 -3.1 2.4-6.2 5.7-7.4 9.5 -0.7 2.2 0 7.7 3.6 6.1 2-0.9 3.5-3 4.9-4.5 -0.3 2.3 1.1 5.4 3.8 4 1.9-1.1 3.5-2.9 5-4.5 -0.9 1.5-1.9 3.1-2.8 4.6 0.7 0 4 0.4 4.3-0.1 0.8-1.5 1.7-2.9 2.5-4.4 1.6-2.9 3.6-5.4 6-7.7 0.3-0.3 5.9-5.4 5.9-4.1 0.1 1.6-2.8 4.3-3.6 5.4 -2 2.6-5.5 6.6-3.8 10.2 2.3 4.7 8.5-3.7 10-5.5 -0.7 2.1-0.8 6.7 2.3 6.7 2.3 0 5-3.2 6.1-5 -0.3 1.7-0.1 5.6 2.6 4.9 2.2-0.6 3.9-2.6 5.4-4.2 2.9-3.1 6.3-6.3 7.6-10.4 -1.7-0.2-3.1 3.5-3.9 4.6 -1.5 2.2-3.4 4.2-5.4 6.1 -0.9 0.8-5.6 4.5-3.8 0.9 1.5-2.9 3.5-5.7 5.2-8.4C373.8 45.2 378.6 37.4 383.4 29.7zM320.1 63.2c-1.8 0 2.9-7.9 3.2-8.5 1.4-2.2 3.2-5 5.3-6.5 2.1-1.5 2.1 1.2 1.3 2.5 -0.6 1.2-1.2 2.4-1.9 3.4 -1.6 2.3-3.3 4.6-5.2 6.7C322.3 61.5 321.1 63.2 320.1 63.2zM355.4 63.2c-0.3-3.2 2-6.3 3.6-8.8 1.2-1.8 3.9-6.5 6.5-7.1 3.3-0.7-2.8 8.7-3.1 9.2C360.8 58.6 358.3 62.7 355.4 63.2 355.4 62.8 357.2 62.9 355.4 63.2zM459.2 39.5c-3.8 6.9-9.5 12.3-11.8 20.1 -1.4 4.6 2.4 6 5.6 3 1.8-1.6 0.8 0.6-0.1 1.4 -1.6 1.3-3.9 1.9-5.7 0.7 -7.3-4.7 0.5-16.1 4-20.8 5.6-7.6 12.4-14.5 19.2-21.1 -10.7 5.3-18 15.7-26.2 23.9 -3 3-5.9 6-8.9 9 -1.5 1.5-3.1 2.8-4.7 4.1 -1.5 1.1-4.4 4.4-6.4 3.6 5-6 7.9-12.8 11.5-19.6 4.2-8 9.5-15.1 15.7-21.6 -7.3 5.1-12.8 11.8-18.6 18.3 -4.4 4.9-8.9 9.9-13.7 14.4 -4.5 4.1-9.6 8.3-15.8 9.3 -5.9 0.9-12.4-2.9-12.4-9.3 0-6.8 5.8-12.5 12.1-14.1 3-0.7 6.7-0.8 9.2 1.3 2.7 2.4 1.8 6.6-0.4 9.1 -1.9 2.2-6 3.8-8.4 1.4 -1.2-1.2-1.3-3.2-0.4-4.7 0.3-0.5 2-3.1 2.9-2 -1.5 1.5-3.3 3.3-2.2 5.6 1.7 3.5 6.7 0.2 8.1-1.8 1.4-2.1 1.6-5.5-0.6-7.1 -2.8-2-6.8-1.1-9.6 0.5 -4.9 3-12.5 11.3-7.5 17.3 4.9 5.9 14.5 1.9 18.8-2.5 4.3-4.2 8.4-8.6 12.7-12.9 5.3-5.2 10.3-10.8 15.8-16 3.6-3.4 7.4-7.1 11.7-9.5 1.1-0.7 2.6-1.6 3.9-1.3 -0.3 1.1-1.5 1.9-2.3 2.6 -2 1.9-3.9 3.6-5.5 5.9 -2.6 3.8-4.5 7.9-6.6 12 -2.8 5.6-6 10.9-9.1 16.4 5.3-4.8 9.6-10.4 14.5-15.6 5-5.2 10.3-9.9 16.1-14.2 2.3-1.7 4.6-3.4 7-4.9 0.8-0.5 4.7-2.4 3-0.2C469.5 27 463.8 32.7 459.2 39.5 457.9 41.8 462.1 35.2 459.2 39.5zM495.9 39.4c-0.7-2.8 3.8-5 4.5-1.8C501.1 40.3 496.7 42.6 495.9 39.4 495.7 38.6 496.2 40.4 495.9 39.4zM540.4 49.8c-0.8 0-2.6 3.4-3.1 3.9 -1.7 2.2-3.8 4.1-5.8 5.9 -1.5 1.4-3.2 2.9-5.2 3.7 -3.5 1.4-2.3-2.7-1.6-4.5 0.8-2.1 2.7-1.9 4.5-2.5 2.8-1 5.9-2.9 7.5-5.5 1-1.7 0.7-4.9-1.8-4.9 -2.8 0-5.4 2.2-7.3 4 0.2-0.6-1.6 0.9-1.7 1 -0.6 0.9-1.1 1.8-1.8 2.6 -1.2 1.4-2 3.1-3.3 4.4 -0.1 0.1-6.4 6.4-6.6 4.9 -0.3-1 1.1-2.7 1.7-3.7 1.1-1.8 2.2-3.6 3.4-5.4 4.9-8 9.9-16 14.8-24 -1.2 0-3.5-0.6-4.2 0.5 -1.3 2-2.6 4.1-3.8 6.1 -2.4 3.9-4.9 7.9-7.3 11.8 -1.7-5.7-10.2 2.2-11.7 4.2 -2.9 3.7-5.5 8.3-9.6 10.8 -2.3 1.4-0.9-1.6-0.3-2.5 1.1-1.8 2.2-3.6 3.3-5.3 5.2-8.5 10.5-17 15.7-25.5 -2 0-3.6-0.7-4.7 1.1 -1.7 2.7-3.4 5.4-5 8.1 -1.8 3-3.7 5.9-5.5 8.9 -0.4 0.7-0.8 1.4-1.3 2 -0.2 0.4-1.2 0.8-1.7 1.5 -2.4 3-4.6 6-7.2 8.8 -1 1.1-2.1 2.6-3.5 3.3 -1.9 0.9-1.6-1.3-0.9-2.3 3-4.8 5.9-9.6 8.9-14.4 -0.6 0-3.7-0.4-3.9 0.1 -0.9 1.4-1.7 2.7-2.6 4.1 -1.5 2.5-3.5 4.9-5.5 7.1 -1.5 1.7-5.1 6.5-7.8 5.7 1.5-5.2 5.4-10 8.3-14.5 1.2-2 2.5-3.9 3.7-5.9 0.3-0.5 2-0.1 2.5-0.1 1.3 0 4.4 0.7 4.9-0.7 -2.1 0-4.2-0.1-6.4-0.1 1.4-2.3 2.9-4.6 4.3-7 -0.6-0.1-3.6-0.8-3.9-0.3 -1 1.7-2.1 3.3-3.1 5 -1.1 1.7-1 2.4-3.1 2.4 -1.3 0-4-0.7-4.5 0.8 1.8 0 3.5 0 5.3 0 -0.9 1.5-1.8 2.9-2.7 4.4 -1.3 2-2.9 3.5-4.2 5.4 -2.2 3.1-4.6 6.3-7.4 8.9 -0.2 0.2-2.9 1.8-2.6 0.4 0-0.9 0.8-1.8 1.2-2.6 0.8-1.4 1.6-2.7 2.4-4.1 1.8-3 3.7-6 5.5-9 -1.1 0-2.1 0-3.2 0 -1.3 0-1.2 0.2-1.9 1.3 -1.3-3.3-5.8-0.4-7.5 0.9 -3.1 2.4-6.2 5.7-7.4 9.5 -0.7 2.2 0 7.7 3.6 6.1 2-0.9 3.5-3 4.9-4.5 -0.2 1.5 0.2 3.9 1.9 4.3 1.9 0.4 3.8-1.7 4.9-2.9 1.5-1.4 2.7-2.9 4-4.5 -0.9 1.8-3.6 8 0.5 8 3.4 0 6.5-4.2 8.4-6.5 -0.9 1.7-1.3 5.6 1.2 6.3 1.8 0.5 3.6-1.1 4.7-2.2 2.4-2.3 4.5-5 6.5-7.6 -1.1 1.9-2.5 4.3-2.5 6.5 0 2.2 1.1 4 3.5 3 2.3-1 4.3-3.8 5.9-5.5 -0.4 2.1 0 6.4 3.1 5.6 2.1-0.5 4.4-3.1 5.6-4.9 -0.5 2.9 0.6 6.2 3.9 4.3 1.9-1.1 3.4-2.8 4.9-4.4 -0.6 3.1 0.5 5.7 4 5.4 3-0.3 5.2-2.4 7.3-4.4 1.7-1.6 3.3-3.1 4.9-4.7C537.6 55.3 542.4 49.8 540.4 49.8zM458.8 63.2c-1.8 0 2.9-7.9 3.2-8.5 1.4-2.2 3.2-5 5.3-6.5 2.1-1.5 2.1 1.2 1.3 2.5 -0.6 1.2-1.2 2.4-1.9 3.4 -1.6 2.3-3.3 4.6-5.2 6.7C461 61.5 459.9 63.2 458.8 63.2zM506.4 63.2c-0.3-3.2 2-6.3 3.6-8.8 1.2-1.8 3.9-6.5 6.5-7.1 3.3-0.7-2.8 8.7-3.1 9.2C511.7 58.6 509.3 62.7 506.4 63.2 506.3 62.8 508.2 62.9 506.4 63.2zM532.3 48.8c0.6-0.6 2.5-2.5 3.4-1.3 0.9 1.3-1.4 3.2-2.1 3.9 -1.9 2-4.2 3.4-6.8 4.3C528.2 53.1 530.3 50.9 532.3 48.8z" fill="#282829"/></g></svg>