<svg xmlns="http://www.w3.org/2000/svg" xmlns:xlink="http://www.w3.org/1999/xlink" version="1.1" x="0px" y="0px" width="584.6px" height="128.5px" viewBox="0 0 584.6 128.5" xml:space="preserve" class="style0"><style>.style0{enable-background:	new 0 0 584.6 128.5;}.style1{fill:	#282829;}.style2{fill:	#282829;fill-opacity:	0.75;}</style><path d="M85 85.3c0 0.8-5.6 1.3-6.6 2.6c-1.8 2.3-1.4 6.3-1.5 9.1c-0.1 4.6-0.1 9.3-0.1 14 c0 3.3 0.7 8-0.3 11.2c-0.5 1.8-3.6 2.5-5 3c-3.5 1.3-7.2 2.2-11 2.7c-11.7 1.7-24.4 0.6-35.2-4.3c-13.2-5.9-21.7-17.6-24.1-31.8 C-1 78 2.7 62.9 12.3 52.7c9.9-10.5 24.5-13.3 38.3-13.1c6.6 0.1 12.9 1.5 19.4 2.5c1.4 0.2 7.5-0.1 7.4 1.7c0 1.2-0.2 2.4-0.3 3.6 c-0.2 2.5-0.3 5-0.4 7.5c0 1.9 0 3.8-0.1 5.7c0 0.6-1 2.6-1.6 1.1c-1.1-2.9-0.8-5.9-2.6-8.7c-1.1-1.7-2.7-3-4.4-4 c-5.4-3.3-11.9-4.6-18.2-5c-6.9-0.4-14.1 0-20.6 2.7c-13.8 5.9-19.2 20.1-18.9 34.4c0.2 11.9 5 24.5 14.2 32.4 c5.7 4.9 12.5 8.2 19.9 9.5c6.2 1.1 14.1 1.3 19.9-1.5c2.7-1.3 2.8-3.5 2.8-6.1c0-3 0-5.9 0-8.9c0-5.2 0.9-11.6-0.6-16.6 c-0.7-2.6-3.2-3.5-5.7-3.8c-0.9-0.1-1.8-0.2-2.7-0.2c-1.3 0-1-1.4 0.1-1.5c2.4-0.3 5 0 7.4 0.1c2.8 0.1 5.5 0.3 8.3 0.1 C75.5 84.6 85 83.5 85 85.3z M168.4 54c-5.2 0-10.4 0.1-15.7 0c-1.3 0-3.5-0.5-4.7 0.1c-1.7 0.8 1.3 1.4 1.8 1.4 c2.7 0.2 5.3 0.5 5.8 3.6c0.5 2.7 0.3 5.7 0.3 8.5c0.1 5.1 0.1 10.1 0.1 15.2c0 9.8 1.3 21-3 30.1c-6 12.8-24.4 14.6-33.9 5 c-6.8-6.9-6.4-17.5-6.4-26.5c0-8.8-0.1-17.7 0.1-26.6c0.1-2.9-0.5-8 2.9-9c0.9-0.3 3 0 3.8-0.7c1.3-1.2-1.5-1.3-2-1.3 c-2.9 0-5.7 0.1-8.6 0.2c-1.9 0-3.8-0.1-5.7-0.1c-1.7 0-3.4-0.1-5-0.1c-0.5 0-4.5-0.2-3 1.3c0.7 0.7 3 0.4 3.9 0.5 c1.1 0.2 2.3 0.5 3 1.5c1.1 1.4 1 3.5 1.1 5.2c0.4 8.1 0.1 16.2 0.1 24.2c0 9.8-0.9 20.5 4.4 29.3c5.7 9.5 16.6 12.4 27.1 12 c7.2-0.3 14.1-2.6 19.4-7.5c5.1-4.7 7.2-11.6 8.1-18.3c1.3-9.8 0.6-20.1 0.6-30c0-3.4-0.1-6.8 0.1-10.2c0.1-1.9 0.1-4.5 1.9-5.6 c1.1-0.7 2.4-0.8 3.7-0.8C170.6 55.6 170.1 54 168.4 54z M209.2 125.3c-2.3 0-6.3 0.1-7.4-2.4c-1.1-2.3-0.9-5.5-1-8.1 c-0.2-5.8-0.1-11.6-0.1-17.4c0-8.6 0-17.3 0-25.9c0-3.2 0-6.4 0.1-9.5c0.1-1.7 0-4.1 1.5-5.3c0.9-0.8 2.3-1 3.5-1.1 c1-0.1 3-1.3 1-1.6c-4.2-0.6-8.8 0.2-13 0.1c-2.7-0.1-5.8-0.5-8.5-0.1c-1.6 0.2-0.6 1.5 0.5 1.6c1.4 0.1 3.2 0.2 4.3 1.3 c1.8 1.8 1.4 5.7 1.5 8.1c0.1 4.6 0.1 9.2 0.1 13.8c0 6.6 0 13.1 0 19.7c0 5.7 0 11.4-0.3 17.1c-0.1 2.3-0.1 4.8-0.8 7 c-0.3 1.1-1 1.9-2.1 2.2c-0.8 0.2-3.9 0.1-3.9 1.2c0 1.7 10 0.4 11.6 0.5c2.2 0.1 4.5 0.2 6.7 0.2c1.9 0.1 3.7 0.1 5.6 0.1 C209.5 126.8 210.8 125.3 209.2 125.3z M273.1 113.4c-1.2 0-1.4 2.9-1.7 3.7c-0.6 1.5-1.4 2.9-2.7 3.9c-2.8 2.1-6.8 2-10.1 2 c-3.7 0-11.8 0.9-14.5-2.6c-2-2.6-1.6-7.5-1.7-10.5c-0.1-4.7-0.1-9.4-0.1-14c0-8.9 0-17.8 0-26.7c0-2.7 0-5.4 0.1-8.1 c0.2-2.3 0.5-4.6 3.1-5.3c1.2-0.3 3.5 0.2 4.4-0.6c1.4-1.2-1.9-1.3-2.3-1.3c-4.1 0-8.3 0.3-12.4 0.2c-3.1-0.1-6.6-0.6-9.7-0.1 c-1.6 0.2-0.6 1.5 0.6 1.6c1.5 0.1 3.2 0.1 4.6 0.7c2.8 1.3 2.3 6 2.4 8.7c0.1 5.3 0.1 10.5 0.1 15.8c0 7.1 0 14.2 0 21.3 c0 6.5 0.5 13.4-1 19.8c-0.2 1-0.6 2.2-1.7 2.7c-1 0.4-3.6 0.1-4.2 0.9c-1.1 1.4 1.7 1.3 2.2 1.3c2.3 0 4.5-0.2 6.8-0.3 c9.8-0.3 19.6 0.5 29.4 0.5c3.4 0 6.6 0.6 7.5-3.2C272.7 122.9 274.8 113.4 273.1 113.4z M338.7 105.7c0 12.1-9.9 20.1-21.4 21.2 c-6.5 0.6-12.9-0.7-19.4-0.4c-3.2 0.1-6.9 0.8-10.1 0.3c-1.8-0.3-0.4-1.2 0.6-1.4c1.4-0.2 3.2-0.2 3.9-1.6c1.2-2.1 1.2-5.2 1.3-7.6 c0.2-3.7 0.2-7.3 0.2-11c0-4.2 0-8.4 0-12.7c0-8.8 0.1-17.7 0-26.5c0-1.6-0.1-3.3-0.2-4.9c-0.1-1.7-0.3-3.7-1.7-4.7 c-1.9-1.3-4.6-0.1-6.3-1.2c-1.7-1.1 4.2-1.2 4.5-1.2c2.4 0 4.8 0.1 7.2 0.2c4.9 0.1 9.8-0.4 14.7-0.2c7.2 0.3 15.2 3 18.2 10.2 c3.5 8.5-3.2 16-9.1 21.3C330 88.3 338.7 95.7 338.7 105.7C338.7 116.4 338.7 94.8 338.7 105.7z M302.5 83.9c0 2.5 9.4 1.5 10.9 1.4 c4.5-0.3 7.2-3.3 8.7-7.4c3.1-9.1-2.1-20.3-12.4-20.8c-2-0.1-4.8-0.2-6.7 0.7c-0.7 0.3-0.5 1.1-0.5 1.8c0 2.8 0 5.6 0 8.4 C302.5 73.2 302.5 78.6 302.5 83.9z M329.4 108.8c0-4.2-1.3-8.5-3.7-12c-1.5-2.2-3.5-4.1-5.8-5.6c-2.8-1.8-5.8-1.9-8.9-2.5 c-1.9-0.3-3.9-0.2-5.8-0.2c-2.1 0-2.6 0-2.6 2.1c0 4.5 0 9.1 0 13.6c0 4.2-0.1 8.3 0.2 12.5c0.2 2 0.4 3.8 2.2 5 c2.4 1.5 5.3 1.8 8 1.9c3.6 0.2 7.5-0.2 10.6-2.1C328 118.8 329.4 113.7 329.4 108.8C329.4 104.5 329.4 121.2 329.4 108.8z M420.5 126.1c0 1.7-17.6 0.6-18.9 0.5c-0.1 0-3.6-0.2-2.4-1.1c0.8-0.6 1.8-0.8 1.6-2.1c-0.1-0.9-0.7-1.9-1-2.8 c-2.7-6.7-5.4-13.3-8.1-20c-0.6-1.4-5.9-0.6-7.1-0.6c-4.4 0-8.7 0-13.1 0c-2.3 0-4.3-0.6-5.2 1.8c-1.4 3.8-2.8 7.7-4.2 11.5 c-1.2 3.2-5.2 11.2 0.2 11.8c0.6 0.1 2.2-0.2 2.6 0.4c0.7 1.4-1.8 1.2-2.5 1.2c-2.6-0.1-5.2-0.3-7.9-0.3c-2.8 0-5.5 0.3-8.3 0.3 c-0.7 0-3.7 0.4-3.7-0.8c0-1.2 3.7-1 4.6-1.1c4.4-0.9 6.3-5.3 7.8-9.1c5.2-13.5 10.5-27 15.7-40.5c2.3-6 4.7-12 7-18 c0.6-1.5 1.2-4.8 2.7-5.2c1.7-0.4 3.6 5.9 4.2 7.4c3.8 9.1 7.5 18.3 11.2 27.5c3.9 9.6 7.5 19.5 11.9 28.9c1.3 2.8 2.9 5.9 5.5 7.7 C414.5 124.6 420.5 125.1 420.5 126.1z M389.5 95.4c-2.4-6.4-4.8-12.8-7.2-19.2c-0.9-2.4-1.8-4.8-2.7-7.1c-1.1-3.1-2.8 3.2-3.2 4.2 c-2.5 7.2-5.1 14.5-7.6 21.7c-0.7 2 3.5 1.2 4.8 1.2c4.2 0 8.5 0 12.7 0C387 96 389.8 96.5 389.5 95.4z M493.4 54 c-5.2 0-10.4 0.1-15.7 0c-1.3 0-3.5-0.5-4.7 0.1c-1.7 0.8 1.3 1.4 1.8 1.4c2.7 0.2 5.3 0.5 5.8 3.6c0.5 2.7 0.3 5.7 0.3 8.5 c0.1 5.1 0.1 10.1 0.1 15.2c0 9.8 1.3 21-3 30.1c-6 12.8-24.4 14.6-33.9 5c-6.8-6.9-6.4-17.5-6.4-26.5c0-8.8-0.1-17.7 0.1-26.6 c0.1-2.9-0.5-8 2.9-9c0.9-0.3 3 0 3.8-0.7c1.3-1.2-1.5-1.3-2-1.3c-2.9 0-5.7 0.1-8.6 0.2c-1.9 0-3.8-0.1-5.7-0.1 c-1.7 0-3.4-0.1-5-0.1c-0.5 0-4.5-0.2-3 1.3c0.7 0.7 3 0.4 3.9 0.5c1.1 0.2 2.3 0.5 3 1.5c1.1 1.4 1 3.5 1.1 5.2 c0.4 8.1 0.1 16.2 0.1 24.2c0 9.8-0.9 20.5 4.4 29.3c5.7 9.5 16.6 12.4 27.1 12c7.2-0.3 14.1-2.6 19.4-7.5 c5.1-4.7 7.2-11.6 8.1-18.3c1.3-9.8 0.6-20.1 0.6-30c0-3.4-0.1-6.8 0.1-10.2c0.1-1.9 0.1-4.5 1.9-5.6c1.1-0.7 2.4-0.8 3.7-0.8 C495.6 55.6 495.1 54 493.4 54z M584.3 89.5c0 12.1-5.6 24.3-15.7 31.2c-11.7 8-25.8 7.1-39.3 6.4c-6.2-0.5-12.1-0.2-18.2-0.2 c-1.1 0-2.4-1.6-0.8-1.6c1.2 0 3-0.1 4-0.9c1.9-1.4 1.8-5.3 1.9-7.5c0.7-10 0.3-20.2 0.3-30.3c0-7.9 0.2-15.9-0.1-23.9 c-0.1-1.5-0.1-3.2-0.6-4.7c-1-2.6-4.6-2.5-6.9-2.5c-1.6 0-0.4-1.6 0.8-1.6c1.6 0 3.3 0 4.9 0.1c2.3 0 4.6 0.2 6.9 0.2 c11.6-0.2 23.6-1.2 35 1.3c12.9 2.9 23.4 11.7 26.7 24.7C583.9 83.2 584.3 86.4 584.3 89.5z M574.5 92.4c0-13.4-7.2-25.7-19.6-31.3 c-6.4-2.9-13.5-3.5-20.4-3.6c-2.4 0-6.3-0.4-8.3 1c-0.9 0.6-0.7 1.9-0.7 2.8c0 16.8-0.2 33.6 0.1 50.3c0.1 3.7-0.4 8.4 3.4 10.3 c5.4 2.7 13.2 2.5 19 1.8c7.3-0.9 14.8-4 19.7-9.5C572.9 108.5 574.5 99.9 574.5 92.4z" class="style1"/><path d="M92.9 35.1c0.3-0.5-2.7-1.8-3.1-2c4.8-7.5 9.9-15 15.6-22c2.1-2.6 4.3-5.2 6.9-7.3 c1.6-1.2 3.5-2.1 4.7-3.7c-1.7-1-4 0.4-5.6 1c-2.9 1.1-5.8 2-8.8 2.8C96.4 5.7 89.9 7 84 9.7c-5.6 2.6-13 7.7-13 14.7 c0 3.2 2 6.5 5.1 7.4c2.4 0.7 7.2 0.4 8.7-2c-0.9-0.4-2.3 0.5-3.3 0.7c-3 0.9-7.5 0.8-8.2-3c-1.4-7.3 6.6-13.2 12.2-16 c8.5-4.3 18.1-6.6 27.2-9.3c-8.8 6.8-16.7 15-23.5 23.8c-1.2 1.5-2.4 3.1-3.5 4.7c-0.4 0.6-1 1.9-1.8 2c-2.8 0.3-5.6 0.6-8.4 1.1 C68.9 35 62.2 37.6 57 42c-4.1 3.5-10.4 11.3-6.2 16.8c4.1 5.3 13.8 0.3 17.8-2.4c5.6-3.7 10.2-9.1 14.3-14.3c1.5-1.9 3-3.8 4.4-5.8 c0.4-0.5 0.7-1 1.1-1.4c0.9-1.1 2.7-0.1 3.8 0.1C92.5 35.2 92.7 35.2 92.9 35.1C93.1 34.8 92.8 35.2 92.9 35.1z M75.7 45.7 c-2.8 4.1-5.6 7.9-9.8 10.9c-2.8 2-6.1 3.5-9.6 3.6c-3.4 0.2-6.3-2.3-5.2-5.9C54.9 41.6 70.6 34.5 83 34.5 C80.8 38.4 78.3 42.1 75.7 45.7z M146.4 30.6c-1.1 0-2.6 3.3-3.2 4c-1.1 1.3-2.2 2.5-3.2 3.8c-0.8 0.9-1.6 1.9-2.4 2.8 c-0.3 0.3-5.3 5.3-5.1 2.5c0.1-2.7 3.1-5.5 4.6-7.5c1.1-1.5 2.4-3.1 3.3-4.8c1-2 1.2-5.4-2-4.3c-2.6 0.9-5.3 3-7.1 5.1 c0.7-1.3 1.4-3.3 2.5-4.4c-0.8 0-3.5-0.5-3.9 0.3c-1.3 2.1-2.8 4-4.2 6c-2.2 3.1-4.6 6.3-7.4 8.9c-0.2 0.2-2.9 1.8-2.6 0.4 c0-0.9 0.8-1.8 1.2-2.6c0.8-1.4 1.6-2.7 2.4-4.1c1.8-3 3.7-6 5.5-9c-1.1 0-2.1 0-3.2 0c-1.3 0-1.2 0.2-1.9 1.3 c-1.5-3.8-8.1 0.6-9.5 2.3c-3.2 3.8-6 7.5-9.8 10.7c-1.3 1.1-3.1 2.5-4.9 2.8c-2.5 0.3-0.8-3.9-0.4-4.9c0.7-1.8 2-1.8 3.7-2.3 c2.8-0.8 5.5-2.4 7.4-4.6c2.9-3.3 0.7-7.3-3.5-5.4c-4.1 1.9-8.9 6.6-10.7 10.7c-2.1 4.7 0.3 9.1 5.6 6.9c2.9-1.2 5.2-3.9 7.4-6 c-0.7 2.2-0.2 8 3.5 6.3c2-0.9 3.5-3 4.9-4.5c-0.3 2.3 1.1 5.4 3.8 4c1.9-1.1 3.5-2.9 5-4.5c-0.9 1.5-1.9 3.1-2.8 4.6 c1 0 2.1 0 3.1 0c1.3 0 1.2-0.2 1.9-1.3c1.1-1.8 2-3.8 3.2-5.6c2.3-3.5 5.8-7.1 9.3-9.4c0.7-0.4 1.4-0.3 1 0.6 c-0.7 1.5-1.9 2.8-2.9 4.2c-1.9 2.5-6.8 7.9-4.1 11.3c2.1 2.6 5.4-0.9 6.8-2.5c1.7-2 3.5-3.9 5.2-5.9 C143.4 35.5 147.2 30.6 146.4 30.6z M100.2 32.1c0.7-0.8 1.4-1.5 2.1-2.3c0.7-0.7 4.4-3.1 3.6-0.2c-0.9 3.3-6.2 6.1-9 7.1 C97.7 35.1 98.9 33.5 100.2 32.1z M107.7 44.2c-1.8 0 2.9-7.9 3.2-8.5c1.4-2.2 3.2-5 5.3-6.5c2.1-1.5 2.1 1.2 1.3 2.5 c-0.6 1.2-1.2 2.4-1.9 3.4c-1.6 2.3-3.3 4.6-5.2 6.7C109.9 42.5 108.8 44.2 107.7 44.2z M167.5 31.3c0 1-1.7 2.1-2.5 2.7 c-1.7 1.3-3.9 1.5-5.9 1.1c-2.3-0.5-4.5-1.5-6.9-1.7c-0.6 0-3.8 0.2-1.9-1.1c2.6-1.8 5.4-2 8.4-1.1c1.7 0.5 3.5 1.1 5.3 0.5 C164.4 31.6 167.5 29.8 167.5 31.3z M207.7 25.5c-2.7-2.1-6.4-0.7-8.9 0.9c-2.2 1.3-6 3.8-6.6 6.6c1.2-0.2 1.6-1.2 2.4-2.1 c1.2-1.2 2.4-2.3 3.9-3.1c2.2-1.3 7.2-3.2 7.9 0.8c1.1 6.2-7.3 13-12.2 15c-6 2.6-14.8 2.5-15.4-5.9c-0.2-3.2 0.8-6.3 2.3-9.1 c0.9-1.7 1.9-3.3 3-4.9c0.7-1 1-0.9 2.1-0.9c7.5 0 15.5-1.7 22.3-5c2.9-1.4 5.7-3.2 7.8-5.7c1.7-1.9 3.6-5.6 0.6-7.4 c-2.4-1.5-6.7-0.5-9.2 0c-3.7 0.7-7.3 2.1-10.6 3.7c-3.6 1.8-7.1 3.8-10.3 6.3c-1.5 1.2-2.9 2.4-4.3 3.8c-1 1-1.7 2.7-3.1 2.5 c-6.6-0.8-9.5-9.3-5.5-14.2c2.3-2.8 5.7-4.5 9.3-4.3c2.5 0.2 5 2.9 7.3 2.4c-1.7-3-6.9-3.8-10.1-3.6c-4 0.2-8.5 2.4-10 6.3 c-2.8 7.1 3.2 12.2 9.2 14.4c-3.4 4-5.6 10.1-4.7 15.4c1.1 5.9 6.7 9 12.4 8.7c6.4-0.3 12.1-4 16.6-8.3 C206.5 35.5 212.1 28.9 207.7 25.5C206.7 24.7 208.7 26.3 207.7 25.5z M186.4 21.1c4-4.8 9.6-8.3 14.9-11.4c2.8-1.6 5.7-2.8 8.8-3.7 c1.8-0.6 5.1-1.6 6.6 0.1c3.8 4.2-9.8 10.6-12 11.6c-5.8 2.6-12.5 4.1-18.8 4.1C186 21.5 186.2 21.3 186.4 21.1z M289.9 30.8 c-0.8 0-2.6 3.4-3.1 3.9c-1.7 2.1-3.8 4.1-5.8 5.9c-1.5 1.4-3.2 2.9-5.2 3.7c-3.5 1.4-2.3-2.7-1.6-4.5c0.8-2.1 2.7-1.9 4.5-2.5 c2.8-1 5.9-2.9 7.5-5.5c1-1.7 0.7-4.9-1.8-4.9c-2.8 0-5.4 2.2-7.3 4c0.2-0.6-1.6 0.9-1.7 1c-0.6 0.9-1.1 1.8-1.8 2.6 c-1.2 1.4-2 3.1-3.3 4.4c-0.1 0.1-6.4 6.4-6.6 4.9c-0.3-1 1.1-2.7 1.7-3.7c1.1-1.8 2.2-3.6 3.4-5.4c4.9-8 9.9-16 14.8-24 c-1.2 0-3.5-0.6-4.2 0.5c-1.3 2-2.6 4.1-3.8 6.1c-2.4 3.9-4.9 7.9-7.3 11.8c-1.1-3.6-5.9-1.1-7.7 0.3c-2.5 1.8-4.5 4.3-6.1 6.9 c-1.7 2.7-5.3 8.2-8.6 8.3c0.3-3.4 3.4-7.2 5.2-10.1c1.4-2.3 2.8-4.6 4.3-6.8c-1 0-2 0-3 0c-2.1 0-2.1 1.3-3.2 3.2 c-2.1 3.8-4.5 7.6-7.4 10.8c-0.6 0.6-4.5 4.6-4.5 2.2c0-1.7 1.6-3.8 2.5-5.1c2.2-3.6 5.2-7.1 6.6-11.1c-0.9 0-3.7-0.5-4.1 0.3 c-1.4 2.5-3.2 4.4-4.8 6.7c-1.9 2.7-4.4 6.5-7.3 8.4c-3.4 2.1-1.7-1.2-0.8-2.8c0.8-1.4 1.6-2.7 2.4-4.1c1.7-2.9 3.5-5.7 5.2-8.6 c-1.1 0-2.1 0-3.2 0c-1.3 0-1.2 0.2-1.9 1.3c-1.6-4-8.5 1.1-10 2.6c-0.9 0.8-1.9 2.5-2.6 3.6c-1.6 2.2-3.5 4.1-5.3 6.1 c-0.8 0.8-2.9 3.5-4.3 3.2c-1-0.2-0.1-1.6 0.2-2.1c0.9-1.5 1.9-3 2.8-4.6c5.5-9 11.1-18 16.6-27c-1 0-3.7-0.6-4.3 0.4 c-1 1.6-2 3.2-3 4.8c-2.8 4.5-5.6 9-8.4 13.6c-2.3 3.7-5.4 7.5-6.3 11.8c-0.9 4.2 2.5 5.6 5.4 2.6c1.4-1.5 2.9-3 4.3-4.5 c-0.7 2.2 0.1 7.6 3.6 6c2-0.9 3.5-3 4.9-4.5c-0.2 1.7 0.5 4.9 2.9 4.3c1.8-0.4 3.3-2.2 4.6-3.5c1.8-1.8 3.3-3.8 4.9-5.8 c-1 1.9-5.2 8.7-1.2 9.6c2.8 0.6 5.6-3.8 7.3-5.7c-0.9 1.9-0.4 7 2.7 5.5c2.4-1.1 4.4-3.4 6-5.4c-0.4 2.1 0.1 6.2 3.1 5.5 c2.1-0.5 4.4-3.1 5.6-4.9c-0.5 2.9 0.6 6.2 3.9 4.3c1.9-1.1 3.4-2.8 4.9-4.4c-0.6 3.1 0.5 5.7 4 5.4c3-0.3 5.2-2.4 7.3-4.4 c1.7-1.6 3.3-3.1 4.9-4.7C287.1 36.3 291.9 30.8 289.9 30.8z M220.4 44.2c-1.8 0 2.9-7.9 3.2-8.5c1.4-2.2 3.2-5 5.3-6.5 c2.1-1.5 2.1 1.2 1.3 2.5c-0.6 1.2-1.2 2.4-1.9 3.4c-1.6 2.3-3.3 4.6-5.2 6.7C222.6 42.5 221.4 44.2 220.4 44.2z M255.9 44.2 c-0.3-3.2 2-6.3 3.6-8.8c1.2-1.8 3.9-6.5 6.5-7.1c3.3-0.7-2.8 8.7-3.1 9.2C261.3 39.6 258.8 43.7 255.9 44.2 C255.9 43.8 257.7 43.9 255.9 44.2z M281.9 29.8c0.6-0.6 2.5-2.5 3.4-1.3c0.9 1.3-1.4 3.2-2.1 3.9c-1.9 2-4.2 3.4-6.8 4.3 C277.8 34.1 279.9 31.9 281.9 29.8z M366.7 10.7c-1.2 0-3.5-0.6-4.2 0.5c-1.3 2-2.6 4.1-3.8 6.1c-2.4 3.9-4.9 7.9-7.3 11.8 c-1.1-3.6-5.9-1.1-7.7 0.3c-2.4 1.7-4.2 4-5.9 6.6c-2 2.6-5 7-8 8.4c-3.4 1.6 0.3-4.5 0.7-5.1c1.6-2.2 3.2-4.4 4.8-6.6 c0.9-1.2 3-5.7-0.2-5.7c-2.9-0.1-6.5 3.3-8.2 5.3c0.7-1.3 1.4-3.3 2.5-4.4c-0.8 0-3.5-0.5-3.9 0.3c-1.3 2.1-2.8 4-4.2 6 c-2.2 3.1-4.6 6.3-7.4 8.9c-0.2 0.2-2.9 1.8-2.6 0.4c0-0.9 0.8-1.8 1.2-2.6c0.8-1.4 1.6-2.7 2.4-4.1c1.8-3 3.7-6 5.5-9 c-1.1 0-2.1 0-3.2 0c-1.3 0-1.2 0.2-1.9 1.3c-1.3-3.3-5.8-0.4-7.5 0.9c-3.1 2.4-6.2 5.7-7.4 9.5c-0.7 2.2 0 7.7 3.6 6.1 c2-0.9 3.5-3 4.9-4.5c-0.3 2.3 1.1 5.4 3.8 4c1.9-1.1 3.5-2.9 5-4.5c-0.9 1.5-1.9 3.1-2.8 4.6c0.7 0 4 0.4 4.3-0.1 c0.8-1.5 1.7-2.9 2.5-4.4c1.6-2.9 3.6-5.4 6-7.7c0.3-0.3 5.9-5.4 5.9-4.1c0.1 1.6-2.8 4.3-3.6 5.4c-2 2.6-5.5 6.6-3.8 10.2 c2.3 4.7 8.5-3.7 10-5.5c-0.7 2.1-0.8 6.7 2.3 6.7c2.3 0 5-3.2 6.1-5c-0.3 1.7-0.1 5.6 2.6 4.9c2.2-0.6 3.9-2.6 5.4-4.2 c2.9-3.1 6.3-6.3 7.6-10.4c-1.7-0.2-3.1 3.5-3.9 4.6c-1.5 2.2-3.4 4.2-5.4 6.1c-0.9 0.8-5.6 4.5-3.8 0.9c1.5-2.9 3.5-5.7 5.2-8.4 C357.2 26.2 362 18.4 366.7 10.7z M303.5 44.2c-1.8 0 2.9-7.9 3.2-8.5c1.4-2.2 3.2-5 5.3-6.5c2.1-1.5 2.1 1.2 1.3 2.5 c-0.6 1.2-1.2 2.4-1.9 3.4c-1.6 2.3-3.3 4.6-5.2 6.7C305.7 42.5 304.5 44.2 303.5 44.2z M338.8 44.2c-0.3-3.2 2-6.3 3.6-8.8 c1.2-1.8 3.9-6.5 6.5-7.1c3.3-0.7-2.8 8.7-3.1 9.2C344.2 39.6 341.7 43.7 338.8 44.2C338.8 43.8 340.6 43.9 338.8 44.2z M442.6 20.5 c-3.8 6.9-9.5 12.3-11.8 20.1c-1.4 4.6 2.4 6 5.6 3c1.8-1.6 0.8 0.6-0.1 1.4c-1.6 1.3-3.9 1.9-5.7 0.7c-7.3-4.7 0.5-16.1 4-20.8 c5.6-7.6 12.4-14.5 19.2-21.1c-10.7 5.3-18 15.7-26.2 23.9c-3 3-5.9 6-8.9 9c-1.5 1.5-3.1 2.8-4.7 4.1c-1.5 1.1-4.4 4.4-6.4 3.6 c5-6 7.9-12.8 11.5-19.6c4.2-8 9.5-15.1 15.7-21.6C427.5 8.4 422 15 416.2 21.5c-4.4 4.9-8.9 9.9-13.7 14.4 c-4.5 4.1-9.6 8.3-15.8 9.3c-5.9 0.9-12.4-2.9-12.4-9.3c0-6.8 5.8-12.5 12.1-14.1c3-0.7 6.7-0.8 9.2 1.3c2.7 2.4 1.8 6.6-0.4 9.1 c-1.9 2.2-6 3.8-8.4 1.4c-1.2-1.2-1.3-3.2-0.4-4.7c0.3-0.5 2-3.1 2.9-2c-1.5 1.5-3.3 3.3-2.2 5.6c1.7 3.5 6.7 0.2 8.1-1.8 c1.4-2.1 1.6-5.5-0.6-7.1c-2.8-2-6.8-1.1-9.6 0.5c-4.9 3-12.5 11.3-7.5 17.3c4.9 5.9 14.5 1.9 18.8-2.5c4.3-4.2 8.4-8.6 12.7-12.9 c5.3-5.2 10.3-10.8 15.8-16c3.6-3.4 7.4-7.1 11.7-9.5c1.1-0.7 2.6-1.6 3.9-1.3c-0.3 1.1-1.5 1.9-2.3 2.6c-2 1.9-3.9 3.6-5.5 5.9 c-2.6 3.8-4.5 7.9-6.6 12c-2.8 5.6-6 10.9-9.1 16.4c5.3-4.8 9.6-10.4 14.5-15.6c5-5.2 10.3-9.9 16.1-14.2c2.3-1.7 4.6-3.4 7-4.9 c0.8-0.5 4.7-2.4 3-0.2C452.9 8 447.2 13.7 442.6 20.5C441.3 22.8 445.5 16.2 442.6 20.5z M479.3 20.4c-0.7-2.8 3.8-5 4.5-1.8 C484.5 21.3 480.1 23.6 479.3 20.4C479.1 19.6 479.6 21.4 479.3 20.4z M523.8 30.8c-0.8 0-2.6 3.4-3.1 3.9c-1.7 2.2-3.8 4.1-5.8 5.9 c-1.5 1.4-3.2 2.9-5.2 3.7c-3.5 1.4-2.3-2.7-1.6-4.5c0.8-2.1 2.7-1.9 4.5-2.5c2.8-1 5.9-2.9 7.5-5.5c1-1.7 0.7-4.9-1.8-4.9 c-2.8 0-5.4 2.2-7.3 4c0.2-0.6-1.6 0.9-1.7 1c-0.6 0.9-1.1 1.8-1.8 2.6c-1.2 1.4-2 3.1-3.3 4.4c-0.1 0.1-6.4 6.4-6.6 4.9 c-0.3-1 1.1-2.7 1.7-3.7c1.1-1.8 2.2-3.6 3.4-5.4c4.9-8 9.9-16 14.8-24c-1.2 0-3.5-0.6-4.2 0.5c-1.3 2-2.6 4.1-3.8 6.1 c-2.4 3.9-4.9 7.9-7.3 11.8c-1.7-5.7-10.2 2.2-11.7 4.2c-2.9 3.7-5.5 8.3-9.6 10.8c-2.3 1.4-0.9-1.6-0.3-2.5 c1.1-1.8 2.2-3.6 3.3-5.3c5.2-8.5 10.5-17 15.7-25.5c-2 0-3.6-0.7-4.7 1.1c-1.7 2.7-3.4 5.4-5 8.1c-1.8 3-3.7 5.9-5.5 8.9 c-0.4 0.7-0.8 1.4-1.3 2c-0.2 0.4-1.2 0.8-1.7 1.5c-2.4 3-4.6 6-7.2 8.8c-1 1.1-2.1 2.6-3.5 3.3c-1.9 0.9-1.6-1.3-0.9-2.3 c3-4.8 5.9-9.6 8.9-14.4c-0.6 0-3.7-0.4-3.9 0.1c-0.9 1.4-1.7 2.7-2.6 4.1c-1.5 2.5-3.5 4.9-5.5 7.1c-1.5 1.7-5.1 6.5-7.8 5.7 c1.5-5.2 5.4-10 8.3-14.5c1.2-2 2.5-3.9 3.7-5.9c0.3-0.5 2-0.1 2.5-0.1c1.3 0 4.4 0.7 4.9-0.7c-2.1 0-4.2-0.1-6.4-0.1 c1.4-2.3 2.9-4.6 4.3-7c-0.6-0.1-3.6-0.8-3.9-0.3c-1 1.7-2.1 3.3-3.1 5c-1.1 1.7-1 2.4-3.1 2.4c-1.3 0-4-0.7-4.5 0.8 c1.8 0 3.5 0 5.3 0c-0.9 1.5-1.8 2.9-2.7 4.4c-1.3 2-2.9 3.5-4.2 5.4c-2.2 3.1-4.6 6.3-7.4 8.9c-0.2 0.2-2.9 1.8-2.6 0.4 c0-0.9 0.8-1.8 1.2-2.6c0.8-1.4 1.6-2.7 2.4-4.1c1.8-3 3.7-6 5.5-9c-1.1 0-2.1 0-3.2 0c-1.3 0-1.2 0.2-1.9 1.3 c-1.3-3.3-5.8-0.4-7.5 0.9c-3.1 2.4-6.2 5.7-7.4 9.5c-0.7 2.2 0 7.7 3.6 6.1c2-0.9 3.5-3 4.9-4.5c-0.2 1.5 0.2 3.9 1.9 4.3 c1.9 0.4 3.8-1.7 4.9-2.9c1.5-1.4 2.7-2.9 4-4.5c-0.9 1.8-3.6 8 0.5 8c3.4 0 6.5-4.2 8.4-6.5c-0.9 1.7-1.3 5.6 1.2 6.3 c1.8 0.5 3.6-1.1 4.7-2.2c2.4-2.3 4.5-5 6.5-7.6c-1.1 1.9-2.5 4.3-2.5 6.5c0 2.2 1.1 4 3.5 3c2.3-1 4.3-3.8 5.9-5.5 c-0.4 2.1 0 6.4 3.1 5.6c2.1-0.5 4.4-3.1 5.6-4.9c-0.5 2.9 0.6 6.2 3.9 4.3c1.9-1.1 3.4-2.8 4.9-4.4c-0.6 3.1 0.5 5.7 4 5.4 c3-0.3 5.2-2.4 7.3-4.4c1.7-1.6 3.3-3.1 4.9-4.7C520.9 36.3 525.8 30.8 523.8 30.8z M442.2 44.2c-1.8 0 2.9-7.9 3.2-8.5 c1.4-2.2 3.2-5 5.3-6.5c2.1-1.5 2.1 1.2 1.3 2.5c-0.6 1.2-1.2 2.4-1.9 3.4c-1.6 2.3-3.3 4.6-5.2 6.7 C444.4 42.5 443.2 44.2 442.2 44.2z M489.8 44.2c-0.3-3.2 2-6.3 3.6-8.8c1.2-1.8 3.9-6.5 6.5-7.1c3.3-0.7-2.8 8.7-3.1 9.2 C495.1 39.6 492.7 43.7 489.8 44.2C489.7 43.8 491.5 43.9 489.8 44.2z M515.7 29.8c0.6-0.6 2.5-2.5 3.4-1.3c0.9 1.3-1.4 3.2-2.1 3.9 c-1.9 2-4.2 3.4-6.8 4.3C511.6 34.1 513.7 31.9 515.7 29.8z" class="style2"/></svg>