<svg xmlns="http://www.w3.org/2000/svg" xmlns:xlink="http://www.w3.org/1999/xlink" version="1.1" x="0px" y="0px" width="510px" height="472.3px" viewBox="0 0 510 472.3" xml:space="preserve" class="style0"><style>.style0{enable-background:	new 0 0 510 472.3;}.style1{fill:	#EDE0D3;}.style2{fill:	#3B6289;}</style><path d="M441.2 204.8c10.8 2.7 17.8 19.2 23.5 27.4c7.5 10.9 20.7 30.8 35.3 32.2 c6.5 0.7 10 4 10 11.6c0 4.5-5.5 7.1-1.2 10c-8.7 0-10.1-2.8-17-8.2c-5-3.9-11.2-4.8-17.3-5.2c-7.2-0.4-3.9 0-6.9 4.7 c-4.9 7.7-6.4 16.3-7.4 25.2c-1.9 17-6 39.8 1.4 56c4.4 9.7 17.4 8.3 22.8 15.8c5.3 7.4-1.7 12.3-7.5 14.9 c-17.4 7.8-16.5 16.7-13.5 34.2c1.9 11.4 7.3 26.3-3.9 34.5c-3.9 2.8-8.5 4.6-12.5 7.5c-2.2 1.6-7.6 6.8-10.5 7 c-9.7 0.8-6.2-12.9-6.2-18.8c0-8.2-2.7-17.7-5.9-25.1c-4.5-10.5-10.6-8.4-18.8-13.5c-3.6-2.3-4.6-10.1-8.4-10.1 c-4.5 0-5.6-0.9-5.6 3.8c0 2.6-11.9 1.2-13.8 6.2c-1.4 3.7 2.8 9.3 5 12c2.5 6.1 11.1 7.6 14.5 13.2c3.7 5.9 3 13.2 3 19.9 c0 10.7-9.1 4.8-15.8 1.9c-17.2-7.5-55.9-14.1-52.4-42.2c0.6-5.1 3.3-5.4 6.8-8.1c5-4.1 6.7-12.1 7.7-18.1 c2.1-12.7 2.8-28.7-5.1-39.8c-8.6-12.1-21.5-19.1-32-29.2c-11.2-11.6-28.3-13.8-41.1-23c-9.2-6.6-15.3-11.8-26.6-15.4 c-13.6-4.3-27.9-6.7-40.1-14.5c-11.8-7.7-14.4-16.1-12.9-29.1c1.3-11.5-6.6-31.7-19-34.8c-18.4-4.6-31.4-34-50.9-34 c7.6 10-6.3 9-7.5 15c-1.9 10 18.9 7.6 22.7 10.4c6.6 5 13.5 12.9 10.7 22.1c-1.6 5.3-3.9 3.8-9.6 3.8c-2.6 0-5.2 0-7.8 0 c-2.3 0-0.8-6.6-2.9-8c1.7 2.6-6 7.6-7.8 8c-3.4 0.7-7.7 1.1-11-0.4c-2-0.9-4.1-6.8-5.2-7c1.6 0.3-5.4 6.6-7.1 6.8 c-5.3 0.6-11.2-0.3-16.3-1.6c-4.2-1.1-10.9-1.6-14.6-3.4c-4-2-3.2-4.4-9-4.9c-9.8-1.1-23.9-3-28.2 8c-0.1-5.5 0.2-10.9 1.2-16.2 c1.4-7.1-2.3-9.6-5-15.7c-2.6-5.6-7.2-7-9.7-13.3c-4-10.4-7.9-21.7-8.9-32.8c-0.7-8 1.7-13 5.3-19.6c3.4-6.2 2.7-16.3 9.8-19.9 c6.2-3.2 9.2-3.5 11.3-11.2c2.3-8.1 3.4-18.7-2.1-25.9c-4.6-6-32.6-12-26.3-23.3C4 38.5 14.2 39.9 20 39.2 c10.6-1.4 7.3-6.5 6.7-15.6c-0.5-7 6.2-16 12.1-20.1C45.3-1 54.9-0.2 63.3 2.7c9.5 3.2 18.5 8 27.7 12c4.1 1.8 11.7 2.8 15.3 5.1 c2.9 1.8 4.5 5.6 8.8 7.5c9 4.2 17.7 6.6 26.3 12.1c15.7 10.2 26.1 1.2 42.8-3.6c19.7-5.7 33.6 13.8 52.2 12 c8.4-0.6 17.7 8 22.5 14.4c2.8 3.7 2.5 8.6 6.1 11.8c4.2 3.7 10.2 4.6 15.5 5.7c8.2 1.8 16.8 6.5 24.5 7.7 c9.2 1.4 19.7-0.6 28.5-3.5c11.4-3.8 18.4-1.3 20.3-14.5c1.5-10.4 3.8-12.8 7.6-2.2c11.4 31.4 24.1 63.1 43.1 90.8 c8.5 12.5 18.6 24.2 27.4 36.2c1.9 2.6 3.5 3.1 4.2 6.8C436.7 204.5 441.5 199.8 441.2 204.8z" class="style1"/><g><path d="M102.4 101.2c-3.1 5.6-7.6 10-9.7 16.3c-0.9 2.9 1.3 6 4 3.2c1.4-1.4 2-0.8 0.5 0.6 c-1.3 1.2-3.2 1.7-4.8 0.7c-6.3-3.9 0.6-13.7 3.5-17.6c4.6-6.1 10-11.6 15.5-16.9c-8.8 4.4-14.9 13-21.7 19.8 c-2.4 2.5-4.8 4.9-7.3 7.4c-1.4 1.4-7 7.1-9.1 6.3c4.1-5 6.6-10.6 9.6-16.3c3.5-6.5 7.8-12.3 12.9-17.7c-6.3 4.3-11 10.2-16 15.8 c-3.7 4.1-7.5 8.4-11.7 12.1c-3.5 3-8 6.8-12.9 6.8c-5.4 0-9.9-3.5-9.1-9.3c0.7-5.1 5.5-9.2 10.4-10.2c2.5-0.5 5.9-0.4 7.6 1.8 c1.7 2.2 0.6 5.4-1.1 7.2c-1.6 1.7-4.8 2.8-6.7 0.9c-2-2 1.2-6.6 2.1-5.5c-1.2 1.2-2.6 2.5-1.9 4.4c1.3 3.4 6.1 0 7.1-1.8 c1.1-2 0.7-4.7-1.5-5.7c-2.9-1.3-6-0.2-8.3 1.6c-3.8 2.8-9.6 10.3-4.1 14.4c4.7 3.5 11.2 0.4 14.8-3.2c4.2-4.3 8.5-8.5 12.7-12.8 c4.2-4.3 8.3-8.7 12.8-12.7c2.1-1.8 7.3-7.6 10.7-6.8c-0.2 0.8-0.9 1.3-1.5 1.8c-1.6 1.5-3.3 2.9-4.6 4.8c-2.2 3.1-3.8 6.5-5.5 9.9 c-2.4 4.8-5.1 9.3-7.7 13.9c4.3-3.9 7.8-8.4 11.8-12.6c4.1-4.3 8.5-8.2 13.3-11.8c1.9-1.4 3.9-2.9 5.9-4.2c0.6-0.4 4-2 2.5-0.2 C110.8 90.9 106.2 95.6 102.4 101.2C101.3 103.1 104.8 97.7 102.4 101.2z M112.3 98.3c-2.3 0-3 4.1-0.5 4.1 C114.2 102.4 114.9 98.3 112.3 98.3z M142.1 102.4c2.4 0 3.2-4.1 0.5-4.1C140.3 98.3 139.6 102.4 142.1 102.4z M203.9 102.4 c2.4 0 3.2-4.1 0.5-4.1C202.2 98.3 201.4 102.4 203.9 102.4z M227.4 110.7c0 1.6-2.7 3.2-3.9 4.1c-1.2 1-4 2.2-4.6 3.2 c-1.3 2.2-3.5 4.2-6.3 3.7c-3.2-0.5-2.3-6 0.5-6.2c0 1 1.4 2.9 2.5 2.3c1-0.5 1.1-2.1 1.4-3.1c0.5-1.9-0.2-3.2-0.5-5 c-1.2 1.1-1.9 3-3 4.2c-1.4 1.5-2.9 2.9-4.4 4.2c-1.7 1.6-3.4 3.3-5.9 3.6c-2.8 0.4-4-1.6-3.5-4.2c-1.3 1.5-3.2 4.2-5.5 4.2 c-3.5 0-1.7-5.1-0.7-6.7c-1.3 1.5-7.6 9.8-10 5.9c-1-1.7 0-4.2 0.8-5.7c0.7-1.3 4.3-4.4 3.7-5.7c-0.6 0.6-2 0.7-2.7 0.8 c-0.6 1.1-1.3 2.1-2.1 3c-1 1.3-2 2.5-3 3.8c-0.9 1.1-2 2.1-3.1 3c-2.3 1.9-4.8 1-4.4-2.4c-1.1 1.1-2.1 2.5-3.4 3.4 c-3.1 2.1-4.3-2.4-3.6-4.7c-1.3 1.5-6.7 8.3-8.1 3.9c-0.9-2.8 1.3-5.6 2.9-7.7c0.8-1 3.4-3.5 3.3-4.9c0-1.2-4 2.5-4.2 2.7 c-2.1 2-4 4-5.4 6.5c-0.7 1.2-1.4 2.4-2.1 3.7c-0.6 1-2.7 0.5-3.8 0.5c1.6-2.5 3.1-5 4.7-7.6c-1.3 1-3.6 1.3-4.5 2.5 c-1.3 1.6-2.8 3.1-4.4 4.3c-3 2.1-6.7 0.8-5.9-3.4c-1.4 1.7-4 5.5-6.6 4.7c-3.5-1.1-0.5-5.9 0.6-7.7c-0.7 0.6-1.6 1.1-2.2 1.8 c-0.6 0.8-2.2 1.4-3.1 1.9c-0.4 0.4-0.7 1.3-1.1 1.7c-1.5 1.7-4.4 3.2-6.5 1.6c-1.8-1.3-0.4-5.5 1.7-5.6c0 1 1.4 2.9 2.5 2.3 c1-0.5 1.1-2.1 1.4-3.1c0.5-1.9-0.2-3.2-0.5-5c-0.3 0.3-0.6 0.6-0.8 0.9c1.4-1.3 0.1 1.3-0.3 1.7c-0.7 0.7-1.5 1.4-2.3 2 c-1.6 1.3-3.1 2.4-4.9 3.4c-1.9 1.7-2.5 3.9-5.6 3.9c-4 0.2-3.4-6-0.3-6.2c0 1 1.4 2.9 2.5 2.3c1-0.5 1.1-2.1 1.4-3.1 c0.5-1.9-0.2-3.2-0.5-5c-0.9 0.8-1.4 2.1-2.2 3c-1.2 1.6-2.6 3.2-3.9 4.8c-1.3 1.5-2.7 3.4-4.6 4.1c-2.9 1.1-3.5-2.7-2.6-4.7 c1.1-2.5 2.9-4.8 4.3-7c0.6-1 1.2-1.9 1.8-2.9c0.2-0.3 2.8 0 3.2 0c-2 3.2-3.9 6.3-5.9 9.5c-0.7 1.1-1.8 2.4-2 3.7 c0 2.5 4.6-2.6 5.1-3.1c1.6-1.7 2.9-3.5 4.3-5.4c-0.4-0.9 4.2-6.2 4.9-6.7c1.2-0.9 2.5-0.2 1.7 1.2c-0.4 0.7-1 1.4-1.6 2 c-0.7 0.7-0.3 2.1 0 2.9c0.5 1.8 1 3.4 0.5 5.3c2.3-0.5 4.3-2.7 5.8-4.4c-1.1 0 2-3.9 2.2-4.2c0.8-1.1 1.6-2.5 2.9-3.1 c1.3-0.5 1.6 0.7 1.1 1.6c-0.6 1-1.9 1.8-1.9 3c0 2.5 1.4 4.5 0.8 7.1c3.1-0.7 5.9-4.1 7.5-6.7c0.4-0.6 1.1-2.3 1.7-2.7 c0.6-0.4 2.5 0 3.2 0c-1.6 2.6-3.2 5.2-4.8 7.7c-0.8 1.3-1.6 2.6-2.4 3.9c-0.9 1.5-0.4 3.1 1.5 1.5c3.4-2.9 5.2-6.8 8.3-9.9 c1.6-1.6 5.2-4.9 7.7-3.4c2.5 1.4 0.7 6-0.4 7.8c3.3-0.5 4.7-3.1 6.3-5.6c1.4-2.3 1.6-2 4.3-2c-0.9 0.9-1.4 2.5-2 3.6 c1.5-1.7 3.6-3.4 5.8-4.1c3.3-1.1 2.3 2.9 1.3 4.4c-1.1 1.6-2.3 3.2-3.5 4.8c-0.3 0.4-4.1 5.9-1.5 5.1c2.2-0.6 5.3-4.6 6.4-6.6 c1-1.8 9.1-11.2 11.1-6.2c0.8-1.7 2.5-1 4.2-1c-1.5 2.6-3.1 5.1-4.6 7.6c-0.7 1.1-1.4 2.2-2 3.4c-0.3 0.5-1.2 1.8-0.8 2.3 c0.7 0.8 2.5-1.2 2.9-1.6c2.5-2.6 4.3-5.6 6.6-8.3c0.7-0.8 0.6-2.2 1.1-3.2c0.3-0.5 0.6-1 0.9-1.5c0.4-0.7 2.9-2.1 2.3-0.2 c-0.2 1-0.8 2-1.3 3c1.1-1 5.8-2.5 4.8 0.5c-0.6 1.7-1.7 3.2-2.8 4.6c-0.7 0.9-1.4 1.8-2 2.8c-0.4 0.6-3.6 5.5-1.1 4.8 c1.7-0.5 3.4-2.6 4.6-3.8c2-2.1 3.3-4.6 5.1-6.8c0.8-1.1 1.5-1.5 2.3-2.7c0.8-1.3 2.2-0.8 3.7-0.8c-1.5 2.4-3 4.8-4.5 7.3 c-0.9 1.4-1.7 2.8-2.6 4.2c-0.4 0.7-1.6 2.8 0.2 2.4c2.9-0.7 5.1-5.4 6.9-7.6c1.5-1.8 10.7-11.3 11.3-4.8c0.2 2.5-3 4.6-4.9 5.6 c-2.4 1.3-4.7 0.8-5.7 3.7c-1.1 3.3 0.7 3.7 3.3 2c2.3-1.6 4.3-3.6 6.2-5.7c1.5-1.5 2.5-3.3 3.8-5c0.8-1.2 1.7-2.3 2.5-3.4 c0.4-0.4 2.7-2 2.7-0.3c0 1.5-1.8 2.1-2.2 3.4c-0.6 2.5 1.4 5 0.7 7.7c1.9-0.4 3.6-2.1 4.9-3.4 C224.5 113.1 227.4 109.9 227.4 110.7z M112.1 118.9c-1.1-0.3-1.9-1-2.4-2c-1 0.9-1.9 2.3-1.1 3.6 C109.7 122.3 111.7 119.9 112.1 118.9C111 118.6 111.7 119.9 112.1 118.9z M123 118.9c-1.1-0.3-1.9-1-2.4-2c-1 0.9-1.9 2.3-1.1 3.6 C120.5 122.3 122.6 119.9 123 118.9C121.9 118.6 122.6 119.9 123 118.9z M149.9 110.6c1-2.4-0.4-4.1-2.4-1.9c-1 0.9-1.8 2-2.6 3.1 c-1.6 2.2-3.1 4.6-4.2 7.2c-1.2 3 1.7 1.9 3.2 0.7c0.9-0.7 1.6-1.5 2.3-2.4c1.3-1.8 0.4-1.8-0.2-3.7c-0.9-2.7 3.1-3.5 2.3-1.1 c-0.2 0.7-0.9 0.7-1.5 0.7c-0.2 1.3 1 1.7 1.7 0.7C148.9 112.8 149.4 111.7 149.9 110.6z M174.5 113.8c0.8-1 1.3-2.1 1.9-3.3 c0.4-0.8 1-3.4-0.8-2.3c-1.8 1-3.4 3.5-4.5 5.3c-0.3 0.5-4.2 7.2-2.8 7.2C170.4 120.7 173.5 115.2 174.5 113.8 C174.9 113.3 171.1 118.4 174.5 113.8z M207.2 110.8c-1.1 1.2-2 2.4-2.8 3.8c2.1-0.8 7.5-3.5 7.5-6.4 C212 105.7 207.7 110.2 207.2 110.8z M215 118.9c-1.1-0.3-1.9-1-2.4-2c-1 0.9-1.9 2.3-1.1 3.6C212.5 122.3 214.6 119.9 215 118.9 C213.9 118.6 214.5 119.9 215 118.9z M262 109.7c-0.1 1.6-1.9 3-3.1 3.9c-0.9 0.7-1.8 1.3-2.9 1.8c-1.7 0.6-2 1.1-3.3 2.4 c-1.4 1.5-3.2 3.3-5.3 3.8c-2.7 0.7-4.2-1.8-3.8-4.3c-1.3 1.5-4.9 6-7.4 4.5c-2.6-1.6 1-7.1 1.9-8.6c1.9-3 3.7-6 5.6-8.9 c-1.5 0-2.9 0-4.4 0c0.5-1.1 2-0.7 3-0.7c1.8 0 1.9 0.2 2.8-1.3c0.9-1.5 1.9-3 2.8-4.5c0.5-0.8 2.5-0.1 3.3 0 c-1.2 1.9-2.4 3.8-3.6 5.7c1.7 0 3.5 0.1 5.2 0.1c-0.7 2-5.3-0.6-6 0.6c-0.9 1.5-1.9 3-2.8 4.5c-2.4 3.9-5.8 7.9-7.1 12.4 c2.1 0.6 4.6-2.7 5.8-4c2.2-2.3 3.4-5.2 5.8-7.5c1.5-1.4 5.4-4.5 7.4-2.3c1.6 1.8 0.2 5.6-1 7.3C258.5 114.2 259.5 111.4 262 109.7 C261.9 110.8 261.5 110 262 109.7z M255.3 110.6c1-2.4-0.4-4.1-2.4-1.9c-1 0.9-1.8 2-2.6 3.1c-1.6 2.2-3.1 4.6-4.2 7.2 c-1.2 3 1.7 1.9 3.2 0.7c0.9-0.7 1.6-1.5 2.3-2.4c1.3-1.8 0.4-1.8-0.2-3.7c-0.9-2.7 3.1-3.5 2.3-1.1c-0.2 0.7-0.9 0.7-1.5 0.7 c-0.2 1.3 1 1.7 1.7 0.7C254.3 112.8 254.8 111.7 255.3 110.6z" class="style2"/><path d="M83.1 146.9c0 2.4-0.3 6-2.9 6.7c-4 1-8.7 0.9-12.7 0c-8-1.9-13-9.3-12.1-17.5 c1-8.3 7.4-13.4 15.5-13.8c2-0.1 4.1 0 6.1 0.3c1.1 0.1 5.1 0.2 5.8 1c0.4 0.4-0.2 7.6-0.6 7.6c-0.4 0-0.6-2.8-0.8-3.2 c-0.6-1.4-1.6-2.2-2.9-2.8c-3.4-1.6-7.8-1.7-11.4-0.8c-6 1.6-8.2 7.3-8.2 13.1c0 6.3 4 12.2 10.1 14.2c2.8 0.9 6.4 1.1 9.3 0.2 c1.3-0.4 2.4-1.1 3.1-2.3c0.2-0.4 0.9-3.2 1.3-3.2C83.1 146.4 83.2 146.6 83.1 146.9z M115.9 140c0 18-28.4 18.7-28.4 0.5 C87.4 123.3 115.9 122.4 115.9 140C115.9 147.7 115.9 131.9 115.9 140z M112.2 140.9c0-6.8-4.3-13.2-11.7-12.7 c-7.2 0.5-10 7.2-9.2 13.7c0.8 6.2 5.6 11.3 12.1 10.6C109.5 152 112.2 146.5 112.2 140.9C112.2 132.6 112.2 151 112.2 140.9z M129.9 138.6c-2.5-1.7-8.4-5.6-4.6-9.1c1.7-1.6 4.8-1.6 6.8-0.7c0.8 0.4 2.5 3.3 2.4 3.3c0.4 0 0.4-3.8 0.4-4.4 c0-0.9-6.9-0.8-7.6-0.6c-5.6 1.1-7.4 7-3.6 11.1c2.9 3.1 10.1 5.8 9.1 10.9c-0.6 3-3.7 3.9-6.3 3.6c-1.3-0.1-2.7-0.6-3.7-1.6 c-0.5-0.5-1.2-3.5-1.4-3.5c-0.5 0-0.5 2.8-0.5 3c-0.1 1.8-0.2 2.4 1.7 3c2.9 0.8 7.1 1 9.7-0.7 C138.9 148.7 134.7 141.9 129.9 138.6z M158.2 129.1c1.2 0 3.2 0 4 1.1c0.2 0.2 0.4 1.8 0.6 1.8c0.6 0 0.4-4 0.4-4.4 c0-0.6-3.2-0.1-3.8-0.1c-2.6 0-5.3 0-7.9 0c-2.1 0-4.2 0.1-6.2 0c-1 0-3.8-1.1-4.1 0.1c-0.1 0.4-1.1 4-0.5 4c0.5 0 1-1.6 1.3-1.9 c0.9-0.7 2.4-0.7 3.4-0.7c1.7 0 3.4-0.1 5-0.1c0 3.8 0 7.7 0 11.5c0 1.6 0 3.1 0 4.7c0 2 0.1 3.9-0.2 5.9c-0.2 1.3-2.4 2.2-2.4 2.3 c0 0.3 9.3 0.3 9.3 0c0-0.5-2.4-0.5-2.7-0.8c-1-0.8-0.7-3.4-0.7-4.5c0-2.3 0-4.6 0-6.9c0-4 0-8.1 0-12.1 C155.2 129 156.7 129.1 158.2 129.1z M189.8 153.4c0 0.6-7.8 0.3-7.8 0c0-0.7 0.7-0.9 0.3-1.9c-0.6-1.6-1.3-3.1-1.9-4.7 c-1.3-3.2-1.6-2.7-5.1-2.7c-2.8 0-4.5-0.8-5.5 2c-0.5 1.3-1 2.6-1.4 3.9c-0.2 0.6-1 2.5-0.1 3.1c0 0 1.5 0.2 1.5 0.5 c0 0.4-8.1 0.3-8.1 0c0-0.2 2.6-0.8 3-1.1c0.8-0.7 1.2-1.8 1.6-2.8c0.8-2 1.6-4 2.3-6c1.9-4.9 3.8-9.9 5.8-14.8 c0.7-1.9 1.2-2.4 2.1-0.1c1.2 2.9 2.3 5.7 3.5 8.6c1.4 3.3 2.7 6.7 4.1 10c0.7 1.6 1.2 3.3 2.3 4.7 C186.8 152.3 189.8 153.6 189.8 153.4z M178.7 142.3c-0.4-1.1-2.9-9.9-3.9-9.9c-0.9 0-3.2 8.5-3.5 9.6 C170.8 143.4 178.7 142.3 178.7 142.3z M236 153.3c0 1.1-7.7-0.1-8.2-0.4c-2.4-1.3-3.9-3.9-5.5-6c-0.8-1-3.6-6.3-5-6.3 c-0.9-0.4-2.7 0-3.7-0.1c-2 0-1.6 0.8-1.6 2.7c0 2.5-0.1 5 0.2 7.4c0.1 0.7 0.2 1.6 0.8 2c0.4 0.2 2.9 0.3 2.9 0.7 c0 0.4-10.2 0.4-10.2 0c0.4-0.4 0.9-0.5 1.6-0.4c1-0.2 1.1-1.5 1.2-2.2c0.2-2 0.2-4 0.2-6.1c0-2.8 0-5.6 0-8.4c0-2.8 0-5.7 0-8.5 c0-0.9 0-1.9-0.2-2.8c-0.3-1.3-3.3-1.5-3.3-1.8c0 0.4 21.5-3.7 20.3 8c-0.2 2.3-1.3 4.4-2.8 6.2c-1.4 1.7-2.7 1.5-1.1 3.5 c1.2 1.5 2.4 3.1 3.6 4.6c1.8 2.2 3.6 4.7 5.9 6.3C231.6 152.1 236 153.5 236 153.3z M222.1 132.3c0-5.1-3.1-8.4-8.2-8.1 c-3.1 0.2-1.9 4.1-1.9 6.5c0 1.1-0.8 7.3 0.3 8C217.5 141.8 222.1 137.4 222.1 132.3C222.1 127.2 222.1 135.4 222.1 132.3z M244.9 153.1c-5.1 0-3.1-10-3.1-13.8c0-2.4 0-4.8 0-7.2c0-0.7 0-1.4 0-2.1c0.1-1.6 2.4-1.9 2.4-2.3c0-0.4-8.4-0.4-8.4 0 c0 0.5 2.1 0.3 2.4 1.3c0.2 0.8 0.2 1.7 0.2 2.5c0 2.3 0 4.7 0 7c0 2.2 0 4.4 0 6.6c0 2 0 3.9-0.2 5.9c-0.2 1.3-2.3 2.2-2.3 2.3 C236.1 154.2 245.8 153.1 244.9 153.1z M273.9 147.4c-0.3 0-2.1 3.9-3.3 4.4c-2.3 1-5.4 0.8-7.8 0.2c-5.1-1.3-9-5.8-9.4-11.1 c-0.4-4.9 1.3-10.3 6.4-11.9c2.9-0.9 6.2-0.9 9.1-0.1c1.4 0.4 2.8 1 3.6 2.3c0.2 0.4 0.7 3.3 1 3.3c0.7 0 0.7-5.5 0.7-6.2 c0-0.9-8.3-1.3-9.3-1.3c-7.3 0-13.8 3.9-14.9 11.6c-1 7.3 3.8 13.6 10.9 15.1c3.5 0.8 8.3 1.1 11.7-0.3 C273.6 152.9 274.7 147.4 273.9 147.4z M303.5 153.4c0 0.6-7.8 0.3-7.8 0c0-0.7 0.7-0.9 0.3-1.9c-0.6-1.6-1.3-3.1-1.9-4.7 c-1.3-3.2-1.6-2.7-5.1-2.7c-2.8 0-4.5-0.8-5.5 2c-0.5 1.3-1 2.6-1.4 3.9c-0.2 0.6-1 2.5-0.1 3.1c0 0 1.5 0.2 1.5 0.5 c0 0.4-8.1 0.3-8.1 0c0-0.2 2.6-0.8 3-1.1c0.8-0.7 1.2-1.8 1.6-2.8c0.8-2 1.6-4 2.3-6c1.9-4.9 3.8-9.9 5.8-14.8 c0.7-1.9 1.2-2.4 2.1-0.1c1.2 2.9 2.3 5.7 3.5 8.6c1.3 3.3 2.7 6.7 4.1 10c0.7 1.6 1.2 3.3 2.3 4.7 C300.5 152.3 303.5 153.6 303.5 153.4z M292.4 142.3c-0.4-1.1-2.9-9.9-3.9-9.9c-0.9 0-3.2 8.5-3.5 9.6 C284.5 143.4 292.3 142.3 292.4 142.3z" class="style2"/></g></svg>